<svg width="20" height="21" viewBox="0 0 20 21" fill="none" xmlns="http://www.w3.org/2000/svg">
<path d="M9.99935 2.1665C5.39698 2.1665 1.66602 5.89746 1.66602 10.4998C1.66602 15.1022 5.39698 18.8332 9.99935 18.8332C14.6017 18.8332 18.3327 15.1022 18.3327 10.4998C18.3327 5.89746 14.6017 2.1665 9.99935 2.1665Z" fill="#90ECF4"/>
<path fill-rule="evenodd" clip-rule="evenodd" d="M13.0886 8.24408C13.414 8.56951 13.414 9.09715 13.0886 9.42259L9.75527 12.7559C9.42983 13.0814 8.9022 13.0814 8.57676 12.7559L6.91009 11.0893C6.58466 10.7638 6.58466 10.2362 6.91009 9.91074C7.23553 9.58531 7.76317 9.58531 8.0886 9.91074L9.16602 10.9882L11.9101 8.24408C12.2355 7.91864 12.7632 7.91864 13.0886 8.24408Z" fill="#444BD3"/>
</svg>
