<svg width="127" height="24" viewBox="0 0 127 24" fill="none" xmlns="http://www.w3.org/2000/svg">
<path d="M39.7071 4.43811L44.1471 16.7225L48.5872 4.43811H50.4173L43.4628 23.6939H41.6327L43.24 19.2437L37.8929 4.43811H39.7071ZM114.885 4.45503V6.13018H110.668C109.22 6.13018 108.329 6.57012 107.772 7.14542C107.119 7.80533 106.896 8.71905 106.896 9.4128V14.3198C106.896 15.0136 107.119 15.9104 107.772 16.5872C108.313 17.1625 109.22 17.6024 110.668 17.6024H114.885V19.2776H110.843C108.599 19.2776 107.247 18.5669 106.419 17.7039C105.172 16.411 105.131 14.5799 105.13 14.2775V9.45508C105.131 9.15267 105.172 7.32157 106.419 6.02866C107.263 5.1657 108.615 4.45503 110.843 4.45503H114.885ZM91.9372 4.45503V6.13018H88.9931C88.1656 6.13018 87.5927 6.29939 87.2425 6.67164C86.8924 7.02698 86.7174 7.65304 86.7174 8.49908V19.2607H84.9668V8.36372C84.9827 7.5346 85.1101 6.6378 85.5238 5.96097C86.2718 4.69192 87.7041 4.45503 88.7703 4.45503H91.9372ZM36.5083 0.00488281V15.352C36.4924 16.1811 36.3492 17.0779 35.9513 17.7547C35.2034 19.0068 33.7711 19.2607 32.7049 19.2607H31.0657C28.8218 19.2607 27.4691 18.55 26.6416 17.687C25.4371 16.4379 25.3581 14.6865 25.3529 14.2965L25.3525 14.2466L25.3525 14.2352V9.46356C25.3525 9.46023 25.3525 9.45644 25.3525 9.45221L25.3529 9.40222C25.3581 9.01223 25.4371 7.26082 26.6416 6.01174C27.485 5.14878 28.8377 4.43811 31.0657 4.43811H34.7419V0.00488281H36.5083ZM56.7829 4.43811C58.8836 4.47195 60.1726 5.1657 60.9842 6.01174C62.1948 7.28273 62.2543 9.07383 62.2572 9.42147L62.2574 19.2607H60.5068V9.4128C60.5068 8.71905 60.284 7.82225 59.6475 7.14542C59.1064 6.58704 58.072 6.1471 56.6874 6.13018C55.3029 6.1471 54.2685 6.58704 53.7274 7.14542C53.0749 7.82225 52.868 8.71905 52.868 9.4128V19.2607H51.1175L51.1176 9.42147C51.1206 9.07383 51.1801 7.28273 52.3906 6.01174C53.2022 5.1657 54.4913 4.47195 56.592 4.43811H56.7829ZM121.522 4.43811C123.622 4.47195 124.911 5.1657 125.723 6.01174C127.012 7.34847 127.012 9.26051 126.996 9.46356V12.5431H117.607V14.286C117.607 14.9797 117.829 15.8765 118.466 16.5533C119.007 17.1117 120.042 17.5517 121.426 17.5686H125.468V19.2607H121.331C119.23 19.2268 117.941 18.5331 117.129 17.687C115.898 16.3941 115.858 14.563 115.856 14.2606V9.43816C115.858 9.13575 115.898 7.30464 117.129 6.01174C117.941 5.1657 119.23 4.47195 121.331 4.43811H121.522ZM78.3466 0.00488281V4.45503H82.0227V6.13018H78.3466V15.2335C78.3466 16.0796 78.5216 16.6718 78.8717 17.0271C79.2218 17.3994 79.7947 17.5686 80.6223 17.5686H83.5664V19.2437H80.3995C79.3332 19.2437 77.901 19.0068 77.153 17.7378C76.7392 17.061 76.6119 16.1642 76.596 15.335V0.00488281H78.3466ZM69.0686 4.43811C71.3125 4.43811 72.6652 5.14878 73.4928 6.01174C74.7184 7.28273 74.7787 9.07383 74.7816 9.42147L74.7818 15.335C74.7659 16.1642 74.6227 17.061 74.2248 17.7378C73.4768 18.9899 72.0446 19.2437 70.9783 19.2437H67.4295C66.3632 19.2437 64.931 19.0068 64.183 17.7378C63.7692 17.061 63.6419 16.1642 63.626 15.335V14.7428C63.6419 13.9137 63.7851 13.0169 64.183 12.3401C64.931 11.0879 66.3632 10.8341 67.4295 10.8341H73.0153V9.39588C73.0153 8.70213 72.7925 7.80533 72.1401 7.1285C71.599 6.5532 70.6919 6.11326 69.2437 6.11326H65.1697V4.43811H69.0686ZM98.0323 4.43811C100.276 4.43811 101.629 5.14878 102.456 6.01174C103.682 7.28273 103.742 9.07383 103.745 9.42147L103.745 15.335C103.73 16.1642 103.586 17.061 103.188 17.7378C102.441 18.9899 101.008 19.2437 99.942 19.2437H96.3932C95.3269 19.2437 93.8947 19.0068 93.1467 17.7378C92.7329 17.061 92.6056 16.1642 92.5897 15.335V14.7428C92.6056 13.9137 92.7488 13.0169 93.1467 12.3401C93.8947 11.0879 95.3269 10.8341 96.3932 10.8341H101.979V9.39588C101.979 8.70213 101.756 7.80533 101.104 7.1285C100.563 6.5532 99.6556 6.11326 98.2074 6.11326H94.1334V4.43811H98.0323ZM34.726 6.13018H30.8747C29.4266 6.13018 28.5354 6.57012 27.9784 7.14542C27.3259 7.82225 27.1031 8.71905 27.1031 9.4128V14.3029C27.1031 14.9966 27.3259 15.8934 27.9784 16.5703C28.5194 17.1456 29.4266 17.5855 30.8747 17.5855H32.4661C33.2937 17.5855 33.8666 17.3994 34.2167 17.044C34.5668 16.6718 34.7419 16.0796 34.726 15.2504V6.13018ZM73.0312 12.5093H67.6841C66.8566 12.5093 66.2837 12.6954 65.9335 13.0508C65.5834 13.4061 65.4084 13.9983 65.4084 14.8443V15.2504C65.4084 16.0796 65.5675 16.6718 65.9176 17.044C66.2677 17.4163 66.8406 17.5855 67.6682 17.5855H70.7555C71.5831 17.5855 72.156 17.3994 72.5061 17.044C72.8562 16.6718 73.0312 16.0796 73.0312 15.2504V12.5093ZM101.995 12.5093H96.6478C95.8203 12.5093 95.2474 12.6954 94.8972 13.0508C94.5471 13.4061 94.3721 13.9983 94.3721 14.8443V15.2504C94.3721 16.0796 94.5312 16.6718 94.8813 17.044C95.2314 17.4163 95.8043 17.5855 96.6319 17.5855H99.7192C100.547 17.5855 101.12 17.3994 101.47 17.044C101.82 16.6718 101.995 16.0796 101.995 15.2504V12.5093ZM121.442 6.13018C120.057 6.1471 119.023 6.58704 118.482 7.14542C117.829 7.82225 117.623 8.71905 117.623 9.4128V10.868H125.261V9.4128C125.261 8.71905 125.039 7.82225 124.402 7.14542C123.861 6.58704 122.827 6.1471 121.442 6.13018Z" fill="#1A1A1A"/>
<path d="M7.43385 1.9844C7.14739 3.59187 6.79728 5.97769 6.60631 8.39735C6.27211 12.6614 6.479 15.521 6.479 15.521L0.829487 21.2232C0.829487 21.2232 0.399806 18.0252 0.177008 14.4211C0.0496955 12.1876 0.00195312 10.2248 0.00195312 9.04034C0.00195312 8.97265 0.0337814 8.90497 0.0337814 8.83729C0.0337814 8.75268 0.129266 7.95741 0.861315 7.2129C1.65702 6.40071 7.52933 1.51062 7.43385 1.9844Z" fill="#1496FF"/>
<path d="M7.43384 1.98427C7.14739 3.59174 6.79728 5.97756 6.60631 8.39722C6.60631 8.39722 0.352064 7.60194 0.00195312 9.20941C0.00195312 9.12481 0.113352 8.14341 0.845401 7.3989C1.64111 6.5867 7.52933 1.51049 7.43384 1.98427Z" fill="#1284EA"/>
<path d="M0.00139712 8.82035V9.19261C0.0650536 8.90496 0.176452 8.70191 0.39925 8.38041C0.860759 7.75435 1.60872 7.58514 1.91109 7.5513C3.43885 7.33133 5.69865 7.07752 7.97437 7.00984C12.0006 6.87447 14.6583 7.22981 14.6583 7.22981L20.3078 1.52753C20.3078 1.52753 17.3478 0.935301 13.974 0.512283C11.7619 0.224631 9.82041 0.0723447 8.72233 0.00466183C8.64276 0.00466183 7.86297 -0.0968624 7.13092 0.647649C6.33522 1.45984 2.29303 5.53773 0.66979 7.17904C-0.0622593 7.92355 0.00139712 8.75267 0.00139712 8.82035Z" fill="#B4DC00"/>
<path d="M20.1011 16.1131C18.5734 16.3331 16.3136 16.6038 14.0378 16.6884C10.0116 16.8238 7.33799 16.4685 7.33799 16.4685L1.68848 22.1877C1.68848 22.1877 4.68033 22.8137 8.05412 23.2198C10.123 23.4736 11.9531 23.609 13.0671 23.6767C13.1466 23.6767 13.274 23.609 13.3535 23.609C13.4331 23.609 14.2129 23.4567 14.9449 22.7122C15.7406 21.9 20.5467 16.0624 20.1011 16.1131Z" fill="#6F2DA8"/>
<path d="M20.1005 16.1131C18.5728 16.3331 16.313 16.6038 14.0372 16.6884C14.0372 16.6884 14.4669 23.3721 12.9551 23.6597C13.0346 23.6597 14.0691 23.609 14.8011 22.8645C15.5968 22.0523 20.5461 16.0624 20.1005 16.1131Z" fill="#591F91"/>
<path d="M13.2896 23.6937C13.1782 23.6937 13.0668 23.6768 12.9395 23.6768C13.2259 23.626 13.4169 23.5245 13.7192 23.2876C14.324 22.8307 14.515 22.0354 14.5786 21.714C14.8491 20.1065 15.2152 17.7207 15.3902 15.301C15.7085 11.037 15.5175 8.1943 15.5175 8.1943L21.1671 2.4751C21.1671 2.4751 21.5808 5.65619 21.8195 9.2603C21.9628 11.6123 22.0105 13.6935 22.0264 14.8441C22.0264 14.9287 22.0901 15.7579 21.358 16.5024C20.5623 17.3146 16.5201 21.4094 14.9128 23.0507C14.1489 23.7952 13.3691 23.6937 13.2896 23.6937Z" fill="#73BE28"/>
</svg>
