<svg width="98" height="30" viewBox="0 0 98 30" fill="none" xmlns="http://www.w3.org/2000/svg">
<path fill-rule="evenodd" clip-rule="evenodd" d="M11.4929 2.44529C7.9173 1.7284 -0.489611 5.38262 0.0223796 9.48295C1.29429 9.86048 2.40191 10.3221 2.22089 10.7951H37.2077C37.418 9.39647 36.3187 8.32412 37.0625 7.15694C37.2973 6.78836 37.4759 6.36789 37.6002 5.94861V3.67927C37.5817 3.66257 37.5614 3.64825 37.5399 3.63752C28.8521 6.44423 33.0711 5.8508 23.7992 3.63871C22.1903 1.62284 16.85 0.16282 14.3605 0C13.4046 0 11.4929 2.44529 11.4929 2.44529Z" fill="url(#paint0_linear_668_8828)"/>
<path fill-rule="evenodd" clip-rule="evenodd" d="M23.0233 9.60205V10.6756H2.24021C2.25932 10.9929 1.73419 11.3185 0.321289 11.6299C1.57587 13.1805 5.27929 14.671 6.59422 14.8505C6.35883 14.8994 6.09776 14.9865 5.81996 15.1051C10.0246 15.6336 14.9958 15.8125 17.4679 15.8644H25.6245C25.5367 15.8447 25.4464 15.825 25.3532 15.8047C23.5389 15.4636 24.2642 15.7099 23.3818 15.2083C35.0625 12.401 28.295 12.8161 37.5401 14.8505C37.8394 14.3137 36.4055 13.0016 37.0627 11.3322C37.3124 10.6971 37.2515 10.1317 37.126 9.60205H23.0233Z" fill="url(#paint1_linear_668_8828)"/>
<path fill-rule="evenodd" clip-rule="evenodd" d="M14.8983 13.8369V14.9105C12.9453 14.8699 9.56926 14.8472 6.38142 14.9033C4.2755 15.4985 0.555361 18.6714 0.0224609 20.5376V21.2974C0.0391887 21.3368 0.0589036 21.375 0.0822031 21.4113C1.19341 21.7412 2.17915 22.1348 2.29027 22.5445H17.9451V21.471H37.1397C36.9389 20.5823 36.5321 19.7986 37.0626 18.9661C37.608 17.7935 37.8637 16.989 37.899 16.4587V16.2232C37.746 14.2514 33.4619 17.3903 31.0884 17.4154C28.4 16.9377 28.9377 16.5804 25.3531 15.8051C23.5388 15.4639 24.264 15.7102 23.3816 15.2087C25.6023 14.6749 27.1561 14.258 28.2805 13.9461V13.8369H14.8983Z" fill="url(#paint2_linear_668_8828)"/>
<path fill-rule="evenodd" clip-rule="evenodd" d="M13.4643 5.36789H13.5241C14.9561 7.89966 14.0438 9.84336 13.2851 12.3459C13.0712 12.8523 13.8431 13.2441 14.0618 12.7038C14.6705 10.3789 15.6348 7.82332 14.48 5.48717H14.5994C20.1274 5.52952 25.7216 6.53149 30.7298 8.94636C31.0626 9.02151 32.1332 9.84336 32.3429 9.18493C29.9305 6.33646 20.5432 4.71422 16.5709 4.83052C16.3983 4.86333 15.9849 4.81084 15.5123 4.75895C15.1419 4.7178 14.7345 4.67725 14.3766 4.67725C13.7117 4.67725 13.2206 4.81919 13.4643 5.36789Z" fill="#974DFF"/>
<path fill-rule="evenodd" clip-rule="evenodd" d="M13.4641 5.36778H13.5238C14.3871 6.99837 14.6087 8.99158 13.7628 10.6758H14.5992C15.0341 8.98382 15.1798 7.17073 14.4199 5.5467C20.0136 5.5634 25.6885 6.4777 30.7295 9.00589C31.0611 9.06434 32.195 9.96194 32.3426 9.24446C29.8071 6.34232 20.6558 4.71471 16.5706 4.83041C16.3735 4.86799 15.9637 4.81312 15.5036 4.75765C15.1488 4.7153 14.7634 4.67236 14.4235 4.67236C13.7986 4.67236 13.3243 4.8161 13.4641 5.36778Z" fill="#F1A5FF"/>
<path fill-rule="evenodd" clip-rule="evenodd" d="M11.3137 5.66586H11.3734C12.5336 7.24218 12.4822 9.14772 11.7319 10.8546C11.4803 11.2698 12.1053 11.6849 12.3293 11.2125C12.7487 10.3292 13.0378 9.33082 13.0462 8.34972C13.0546 7.24576 12.5497 6.10721 11.9708 5.18873C11.895 5.05216 11.785 4.99609 11.6721 4.99609C11.383 4.99609 11.0801 5.36468 11.3137 5.66586Z" fill="#974DFF"/>
<path fill-rule="evenodd" clip-rule="evenodd" d="M12.5679 10.6758C12.9144 9.23251 13.1712 7.69794 12.3886 6.32202C12.2793 6.09598 11.9567 5.4435 11.9704 5.18884C11.7213 4.72841 11.0582 5.18645 11.3133 5.60632H11.373C12.4352 7.12061 12.5679 9.00766 11.7912 10.6758H12.5679Z" fill="#F1A5FF"/>
<path fill-rule="evenodd" clip-rule="evenodd" d="M11.3141 5.60612H11.3739C12.4355 7.1204 12.5687 9.00805 11.7921 10.6756H12.5687C12.9152 9.2323 13.1721 7.69773 12.3895 6.32181C12.2802 6.09577 11.957 5.44329 11.9713 5.18863C11.8972 5.05205 11.7873 4.99658 11.6756 4.99658C11.4097 4.99658 11.1349 5.31089 11.3141 5.60612Z" fill="#F1A5FF"/>
<path fill-rule="evenodd" clip-rule="evenodd" d="M17.8853 21.4707V22.5442H2.29022C2.38103 22.88 1.88278 23.2271 0.380859 23.5581C3.27417 26.3649 6.87543 27.2511 10.0585 26.5402C10.5561 28.7797 14.7471 30.0614 17.5269 29.1644C17.5651 28.5913 17.4629 28.0187 17.2281 27.4945C21.1132 28.1547 30.5943 25.1786 31.0883 24.9299C31.5358 24.847 32.9123 25.3378 34.2809 25.8293C35.836 26.3875 37.381 26.9452 37.5399 26.6595C37.8392 26.1227 36.4054 24.8106 37.0625 23.1407C37.3027 22.5299 37.2555 21.983 37.1396 21.4707H17.8853Z" fill="url(#paint3_linear_668_8828)"/>
<path fill-rule="evenodd" clip-rule="evenodd" d="M13.4643 17.2961H13.5241C14.9698 19.8428 14.0164 21.8109 13.2851 24.3338C13.0712 24.8407 13.8431 25.232 14.0618 24.6916C14.7153 22.3942 15.6097 19.8458 14.48 17.5341L14.5994 17.475C20.1256 17.5198 25.7264 18.4293 30.7298 20.8746C31.0626 20.9497 32.1332 21.771 32.3429 21.1131C29.9305 18.2653 20.5432 16.6424 16.5709 16.7593C16.3983 16.7921 15.9855 16.7397 15.5135 16.6878C15.1425 16.6466 14.7345 16.6055 14.3766 16.6055C13.7117 16.6055 13.2206 16.748 13.4643 17.2961Z" fill="#373FFF"/>
<path fill-rule="evenodd" clip-rule="evenodd" d="M13.4648 17.2961H13.5246C14.3801 18.9094 14.6089 20.8782 13.7636 22.5445H14.5999C15.0379 20.8531 15.1806 19.0394 14.4207 17.4154C20.0084 17.4345 25.6672 18.4347 30.7303 20.8746C31.0619 20.9497 32.1349 21.7716 32.3434 21.1131C29.9316 18.2653 20.5437 16.6418 16.5714 16.7593C16.3988 16.7921 15.9866 16.7397 15.514 16.6878C15.143 16.6466 14.735 16.6055 14.3771 16.6055C13.7122 16.6055 13.2211 16.748 13.4648 17.2961Z" fill="#F1A5FF"/>
<path fill-rule="evenodd" clip-rule="evenodd" d="M11.314 17.5941H11.3737C12.5339 19.1704 12.4826 21.0759 11.7322 22.7828C11.4807 23.1979 12.1056 23.613 12.3296 23.1407C12.749 22.2574 13.0382 21.2596 13.0465 20.2779C13.0698 19.1429 12.5023 18.0312 11.9712 17.0573C11.676 16.539 10.9084 17.1837 11.314 17.5941Z" fill="#373FFF"/>
<path fill-rule="evenodd" clip-rule="evenodd" d="M12.5684 22.5443C12.7225 21.568 13.0912 20.5762 12.8671 19.5623C12.8372 18.9724 11.3562 15.4744 11.1943 17.5345H11.3736C12.4459 19.0487 12.5696 20.9328 11.7918 22.604L12.5684 22.5443Z" fill="#F1A5FF"/>
<path fill-rule="evenodd" clip-rule="evenodd" d="M11.1943 17.5339H11.3736C12.4459 19.0488 12.5696 20.9329 11.7918 22.604L12.5684 22.5444C12.7225 21.5687 13.0912 20.5762 12.8671 19.5623C12.8438 19.1037 11.9453 16.8916 11.4692 16.8916C11.3323 16.8916 11.2308 17.0741 11.1943 17.5339Z" fill="#F1A5FF"/>
<path fill-rule="evenodd" clip-rule="evenodd" d="M6.47437 6.0835C7.36512 6.0835 8.0874 6.80456 8.0874 7.69381C8.0874 8.58306 7.36512 9.30412 6.47437 9.30412C5.58361 9.30412 4.86133 8.58306 4.86133 7.69381C4.86133 6.80456 5.58361 6.0835 6.47437 6.0835Z" fill="black"/>
<path fill-rule="evenodd" clip-rule="evenodd" d="M4.80176 7.57413C4.83462 6.61928 5.63635 5.87198 6.59283 5.90537C7.5493 5.93818 8.29787 6.73916 8.26441 7.69342C8.23275 8.62442 7.46745 9.36278 6.53428 9.36337C5.64591 9.43136 4.87046 8.76756 4.80236 7.88129C4.80176 7.8783 4.80176 7.87532 4.80176 7.87234C4.89496 8.54152 5.50253 9.01686 6.17583 8.94588C6.93455 8.94588 7.5499 8.33217 7.5499 7.57413C7.5499 6.81669 6.93455 6.20239 6.17583 6.20239C5.4171 6.20239 4.80176 6.81669 4.80176 7.57413Z" fill="white"/>
<path fill-rule="evenodd" clip-rule="evenodd" d="M5.51895 7.57422C5.78242 7.57422 5.99689 7.78773 5.99689 8.05135C5.99689 8.31496 5.78242 8.52848 5.51895 8.52848C5.25489 8.52848 5.04102 8.31496 5.04102 8.05135C5.04102 7.78773 5.25489 7.57422 5.51895 7.57422Z" fill="white"/>
<path fill-rule="evenodd" clip-rule="evenodd" d="M6.47437 18.0117C7.36512 18.0117 8.0874 18.7322 8.0874 19.6214C8.0874 20.5107 7.36512 21.2317 6.47437 21.2317C5.58361 21.2317 4.86133 20.5107 4.86133 19.6214C4.86133 18.7322 5.58361 18.0117 6.47437 18.0117Z" fill="black"/>
<path fill-rule="evenodd" clip-rule="evenodd" d="M4.80176 19.4428C4.83462 18.4879 5.63635 17.7406 6.59283 17.774C7.5493 17.8068 8.29787 18.6078 8.26441 19.5621C8.23275 20.4937 7.46745 21.2314 6.53428 21.232C5.64591 21.3 4.87046 20.6368 4.80236 19.7499C4.80176 19.747 4.80176 19.744 4.80176 19.741C4.86389 20.4298 5.47445 20.938 6.16448 20.8754C6.16866 20.8748 6.17164 20.8742 6.17583 20.8742C6.93455 20.8736 7.5493 20.2587 7.5487 19.5012C7.5481 18.7438 6.93216 18.1301 6.17284 18.1307C5.43801 18.1319 4.83402 18.7098 4.80176 19.4428Z" fill="white"/>
<path fill-rule="evenodd" clip-rule="evenodd" d="M5.51895 19.5029C5.78242 19.5029 5.99689 19.7158 5.99689 19.9801C5.99689 20.2431 5.78242 20.4572 5.51895 20.4572C5.25489 20.4572 5.04102 20.2431 5.04102 19.9801C5.04102 19.7158 5.25489 19.5029 5.51895 19.5029Z" fill="white"/>
<path fill-rule="evenodd" clip-rule="evenodd" d="M49.9072 6.79883C52.5956 6.79883 54.7458 7.87237 55.6419 11.3316L52.7749 12.1069C52.1774 10.1387 51.2813 9.3634 49.9072 9.3634C48.5332 9.3634 46.6214 10.0195 46.6214 14.0154C46.6214 18.012 48.5332 18.9656 50.0267 18.9656C51.5233 19.005 52.7988 17.8879 52.9535 16.4011H50.4449V14.0751H55.8814V21.1724H53.3723V19.2048H53.3125C52.656 20.6433 51.1905 21.5403 49.6085 21.4706C45.3668 21.4706 43.4551 18.3102 43.4551 14.0751C43.4551 9.6616 45.9045 6.79883 49.9072 6.79883ZM82.3472 10.795C84.6168 10.795 86.1707 12.2861 86.7681 13.8964L84.1992 14.7313C83.781 13.4192 83.1836 13.0018 82.2875 13.0018C81.3913 13.0018 80.2562 14.0753 80.2562 16.1031C80.2562 18.1303 80.8537 19.2044 82.2271 19.2044C83.6018 19.2044 83.781 18.7869 84.259 17.4152L86.8279 18.3098C86.1624 20.2547 84.2835 21.5215 82.2271 21.4106C79.8375 21.4106 77.2094 20.0394 77.2094 16.1031C77.2094 12.0475 80.077 10.795 82.3472 10.795ZM73.5055 7.51428V11.0337H76.1342V13.2404H73.5055V17.6533C73.5055 18.7268 73.8042 19.0853 74.9393 19.0853L75.9543 18.966V21.1727L73.9237 21.3516C70.8763 21.292 70.4587 20.2179 70.4587 18.3099V13.2404H68.7261V11.0337H70.3983V7.51428H73.5055ZM61.5568 7.03751V21.1725H58.51V7.03751H61.5568ZM67.1129 11.0335V21.1725H64.066V11.0335H67.1129ZM91.4873 7.03751V12.5841C92.3087 11.4599 93.6189 10.7949 95.0127 10.7949C96.7452 10.7949 97.9998 11.6299 97.9998 13.777V21.1725H94.8926V14.7312C94.8926 13.8366 94.5347 13.3595 93.6978 13.3595C92.8626 13.4197 92.0775 13.78 91.4873 14.3734V21.1725H88.3813V7.03751H91.4873ZM67.1726 7.15679V9.60208H64.066V7.15679H67.1726Z" fill="black"/>
<defs>
<linearGradient id="paint0_linear_668_8828" x1="18.3035" y1="-2.98206e-07" x2="18.3035" y2="10.7295" gradientUnits="userSpaceOnUse">
<stop stop-color="#E459FF"/>
<stop offset="1" stop-color="#914DFF"/>
</linearGradient>
<linearGradient id="paint1_linear_668_8828" x1="9.12451" y1="12.5231" x2="20.1208" y2="19.8789" gradientUnits="userSpaceOnUse">
<stop stop-color="#F0A5FF"/>
<stop offset="1" stop-color="#FF676B"/>
</linearGradient>
<linearGradient id="paint2_linear_668_8828" x1="18.9607" y1="13.6461" x2="18.9607" y2="22.8129" gradientUnits="userSpaceOnUse">
<stop stop-color="#6E3BFF"/>
<stop offset="1" stop-color="#3633FF"/>
</linearGradient>
<linearGradient id="paint3_linear_668_8828" x1="15.473" y1="25.2761" x2="18.3014" y2="28.6691" gradientUnits="userSpaceOnUse">
<stop stop-color="#F0A5FF"/>
<stop offset="1" stop-color="#FF676B"/>
</linearGradient>
</defs>
</svg>
