<svg width="96" height="30" viewBox="0 0 96 30" fill="none" xmlns="http://www.w3.org/2000/svg">
<g clip-path="url(#clip0_668_8865)">
<path d="M6.5065 0H1.49316V11.0879H6.5065V0Z" fill="#FF6B00"/>
<path d="M1.49316 16.1973V24.5675C1.49316 28.3722 4.37316 29.7854 6.5065 29.7854H8.95983V24.5675H6.5065V16.1973H1.49316Z" fill="#FF6B00"/>
<path d="M0 11.0879H1.94291V16.197H0V11.0879Z" fill="#05CE7C"/>
<path d="M6.20996 11.0879H8.96044V16.197H6.20996V11.0879Z" fill="#05CE7C"/>
<path d="M6.5065 11.0879H1.49316V16.197H6.5065V11.0879Z" fill="#055600"/>
<path d="M24.96 21.3063L30.08 19.1322C29.3867 17.4582 28.6934 15.8711 28.0534 15.0015L23.04 17.1756L24.96 21.3063Z" fill="#DA1800"/>
<path d="M18.5595 23.915L16.7462 19.7842L11.5195 21.9583C11.9142 23.6215 12.5862 25.1325 13.4395 26.1978L18.5595 23.915Z" fill="#DA1800"/>
<path d="M23.04 17.1753L28.0533 15.0012C22.6133 7.17449 10.24 11.7401 11.52 21.9584L16.7466 19.7843C17.2373 16.447 20.6933 15.1534 23.04 17.1753Z" fill="#FF6B00"/>
<path d="M16.7464 19.7842C16.6771 20.6363 16.7538 21.3518 16.9732 21.9642C17.2603 22.766 17.7917 23.3912 18.5597 23.915L24.9597 21.3061C24.6291 19.6972 24.1171 18.3167 23.0397 17.1753L16.7464 19.7842Z" fill="#DA3AB3"/>
<path d="M13.4404 26.198C17.2164 30.9484 23.8938 30.8723 28.1604 26.8502L24.9604 22.8281C23.3604 24.6761 20.0538 25.0022 18.5604 23.9152" fill="#FF6B00"/>
<path d="M37.653 11.3053V11.0879H32.6396V17.6102L37.653 11.3053Z" fill="#DA3AB3"/>
<path d="M37.6537 11.3055L37.2578 11.8929L37.3888 17.4225L37.6537 17.6103C38.155 16.1537 39.6164 15.7515 40.6404 16.7407L44.267 13.0447C42.2617 11.1098 39.7977 10.6967 37.6537 11.3055Z" fill="#00B3E3"/>
<path d="M37.653 11.3052C35.0183 12.0552 32.8743 14.4033 32.6396 17.6101V29.785H37.653V11.3052Z" fill="#00299F"/>
<path d="M59.2002 11.0879H51.2002C44.0322 12.4032 44.7256 22.7845 51.9469 22.9367H55.0402C56.1282 22.9367 56.1282 24.676 55.0402 24.676H47.7869V29.7851H55.0402C58.9229 29.3938 60.7575 26.8827 60.8002 24.0238C60.8429 20.9039 58.6349 17.8276 54.9335 17.8276H51.7335C51.0295 17.5776 51.0295 16.4797 51.7335 16.197H59.2002V11.0879Z" fill="#FF4338"/>
<path d="M76.6934 21.3063L81.8134 19.1322C81.1201 17.4582 80.4268 15.8711 79.7868 15.0015L74.7734 17.1756L76.6934 21.3063Z" fill="#DA1800"/>
<path d="M70.2929 23.915L68.4796 19.7842L63.2529 21.9583C63.6476 23.6215 64.3196 25.1325 65.1729 26.1978L70.2929 23.915Z" fill="#DA1800"/>
<path d="M74.7734 17.1753L79.7867 15.0012C74.3467 7.17449 61.9734 11.7401 63.2534 21.9584L68.48 19.7843C68.9707 16.447 72.4267 15.1534 74.7734 17.1753Z" fill="#FF6B00"/>
<path d="M68.4798 19.7842C68.3198 21.7518 68.9384 22.991 70.2931 23.915L76.6931 21.3061C76.3625 19.6972 75.8505 18.3167 74.7731 17.1753L68.4798 19.7842Z" fill="#DA3AB3"/>
<path d="M65.1738 26.198C68.9498 30.9484 75.6272 30.8723 79.8938 26.8502L76.6938 22.8281C75.0938 24.6761 71.7872 25.0022 70.2938 23.9152" fill="#FF6B00"/>
<path d="M89.3864 11.3053V11.0879H84.373V17.6102L89.3864 11.3053Z" fill="#DA3AB3"/>
<path d="M89.387 11.3055L89.2549 11.5608V17.437L89.387 17.6103C89.8883 16.1537 91.3497 15.7515 92.3737 16.7407L96.0003 13.0447C93.995 11.1098 91.531 10.6967 89.387 11.3055Z" fill="#00B3E3"/>
<path d="M89.3864 11.3052C86.7517 12.0552 84.6077 14.4033 84.373 17.6101V29.785H89.3864V11.3052Z" fill="#00299F"/>
</g>
<defs>
<clipPath id="clip0_668_8865">
<rect width="96" height="30" fill="white"/>
</clipPath>
</defs>
</svg>
