<svg width="48" height="48" viewBox="0 0 48 48" fill="none" xmlns="http://www.w3.org/2000/svg">
<path d="M26.818 3.18198C28.5754 1.42462 31.4246 1.42462 33.182 3.18198L44.818 14.818C46.5754 16.5754 46.5754 19.4246 44.818 21.182L33.182 32.818C31.4246 34.5754 28.5754 34.5754 26.818 32.818L15.182 21.182C13.4246 19.4246 13.4246 16.5754 15.182 14.818L26.818 3.18198Z" fill="url(#paint0_linear_7200_63)"/>
<path d="M29.3337 24.0096C29.3337 22.0088 27.212 20.7206 25.4368 21.6436L18.9485 25.0172C18.6596 25.1674 18.3258 25.2067 18.01 25.1277L14.1768 24.1694C13.5097 24.0026 12.804 24.1 12.207 24.4411L4.01062 29.1248C3.17976 29.5996 2.66699 30.4831 2.66699 31.4401V39.9997C2.66699 41.4724 3.8609 42.6663 5.33366 42.6663H26.667C28.1398 42.6663 29.3337 41.4724 29.3337 39.9997V24.0096Z" fill="#90ECF4"/>
<path d="M12.1674 33.7707L3.53216 37.0089C3.01176 37.2041 2.66699 37.7016 2.66699 38.2574V40C2.66699 41.4728 3.8609 42.6667 5.33366 42.6667H26.667C28.1397 42.6667 29.3337 41.4728 29.3337 40V32.0001C29.3337 31.0691 28.4038 30.4248 27.5322 30.7516L19.8333 34.2294C19.0737 34.5142 18.2456 34.5614 17.4586 34.3646L14.542 33.6355C13.7551 33.4387 12.9269 33.4859 12.1674 33.7707Z" fill="#444BD3"/>
<defs>
<linearGradient id="paint0_linear_7200_63" x1="30" y1="0" x2="30" y2="36" gradientUnits="userSpaceOnUse">
<stop stop-color="#DEDEDE"/>
<stop offset="1" stop-color="#DEDEDE" stop-opacity="0"/>
</linearGradient>
</defs>
</svg>
