<svg width="48" height="48" viewBox="0 0 48 48" fill="none" xmlns="http://www.w3.org/2000/svg">
<path d="M26.818 3.18198C28.5754 1.42462 31.4246 1.42462 33.182 3.18198L44.818 14.818C46.5754 16.5754 46.5754 19.4246 44.818 21.182L33.182 32.818C31.4246 34.5754 28.5754 34.5754 26.818 32.818L15.182 21.182C13.4246 19.4246 13.4246 16.5754 15.182 14.818L26.818 3.18198Z" fill="url(#paint0_linear_7200_443)"/>
<path d="M7.06436 21.9758C5.33333 20.4991 2.66699 21.7292 2.66699 24.0046V39.9908C2.66699 42.2659 5.33269 43.4961 7.06386 42.02L16.3763 34.0796C17.656 32.9885 17.6562 31.0116 16.3769 29.9202L7.06436 21.9758Z" fill="#90ECF4"/>
<path d="M19.0644 21.9758C17.3333 20.4991 14.667 21.7292 14.667 24.0046V39.9908C14.667 42.2659 17.3327 43.4961 19.0639 42.02L28.3763 34.0796C29.656 32.9885 29.6562 31.0116 28.3769 29.9202L19.0644 21.9758Z" fill="#444BD3"/>
<defs>
<linearGradient id="paint0_linear_7200_443" x1="30" y1="0" x2="30" y2="36" gradientUnits="userSpaceOnUse">
<stop stop-color="#DEDEDE"/>
<stop offset="1" stop-color="#DEDEDE" stop-opacity="0"/>
</linearGradient>
</defs>
</svg>
