<svg width="88" height="36" viewBox="0 0 88 36" fill="none" xmlns="http://www.w3.org/2000/svg">
<path d="M33.498 7.875V26.899H40.2914C45.8602 26.899 49.1344 23.3657 49.1344 17.3409C49.1344 11.3159 45.8473 7.875 40.2914 7.875H33.498ZM36.8239 10.749H39.9434C43.6559 10.749 45.7441 13.0957 45.7441 17.354C45.7441 21.6914 43.6816 24.0249 39.9434 24.0249H36.8239V10.749Z" fill="#121127"/>
<path d="M51.5449 26.899H54.7546V7.875H51.5449V26.899Z" fill="#121127"/>
<path d="M66.5373 22.7199C66.1893 23.8801 65.0549 24.6447 63.5595 24.6447C61.4584 24.6447 60.1177 23.1418 60.1177 20.9006V20.7028H69.6697V19.6349C69.6697 15.3899 67.2463 12.6345 63.3662 12.6345C59.4216 12.6345 56.9209 15.548 56.9209 19.9646C56.9209 24.4206 59.3959 27.1759 63.4952 27.1759C66.7307 27.1759 69.1284 25.3567 69.5409 22.7199H66.5373ZM63.3791 15.1789C65.2225 15.1789 66.46 16.5632 66.5245 18.5408H60.1436C60.2725 16.5896 61.5745 15.1789 63.3791 15.1789Z" fill="#121127"/>
<path d="M76.8496 21.8891L79.6855 26.8989H83.1918L78.8477 19.8325L83.2434 12.9243H79.7242L77.0043 17.8286H76.9398L74.1812 12.9243H70.5718L74.9418 19.9247L70.5332 26.8989H73.9493L76.7852 21.8891H76.8496Z" fill="#121127"/>
<path fill-rule="evenodd" clip-rule="evenodd" d="M13.209 31.4998C20.4951 31.4948 26.4001 25.4527 26.4001 17.9999C26.4001 10.5471 20.4951 4.50485 13.209 4.5C18.3715 6.70637 21.9992 11.9198 21.9992 17.9999C21.9992 24.0798 18.3715 29.2933 13.209 31.4998Z" fill="#121127" fill-opacity="0.32"/>
<path d="M0 9.30049C0 6.64952 2.07363 4.50049 4.63158 4.50049H7.70016C14.9902 4.50049 20.9 10.5446 20.9 18.0003C20.9 25.4562 14.9902 31.5002 7.70016 31.5002H4.63158C2.07363 31.5002 0 29.3512 0 26.7002V9.30049Z" fill="#121127"/>
</svg>
