<svg width="128" height="32" viewBox="0 0 128 32" fill="none" xmlns="http://www.w3.org/2000/svg">
<path d="M4.69189 18.9049V31.5082H0.00260516V18.9049H4.69189ZM31.2645 18.9049V31.5082H26.5752V18.9049H31.2645ZM11.0389 2.92425L12.2772 5.52716C12.3786 5.73892 12.3856 5.98422 12.2964 6.20148C12.2072 6.41874 12.0303 6.58734 11.81 6.66495C7.65308 8.15283 4.68928 11.9986 4.68928 16.5086V17.3339H0V16.5086C0 10.1195 4.15783 4.66682 10.0168 2.50501C10.4138 2.35813 10.8565 2.53971 11.0389 2.92425ZM21.2459 2.49364C27.1066 4.66244 31.2645 10.1177 31.2645 16.5042V17.3295H26.5752V16.5042C26.5752 11.9942 23.6149 8.14933 19.4544 6.66057C19.2342 6.58296 19.0573 6.41436 18.9681 6.1971C18.8789 5.97984 18.8858 5.73454 18.9872 5.52278L20.2238 2.91287C20.4062 2.52833 20.8489 2.34675 21.2459 2.49364Z" fill="#27272A"/>
<path d="M15.6334 7.50154C20.8125 7.50154 25.012 11.5319 25.012 16.5041V31.508H20.3227V16.5041C20.3227 14.0176 18.223 12.0028 15.6334 12.0028C13.0439 12.0028 10.9442 14.0158 10.9442 16.5041V31.508H6.25488V16.5041C6.25488 11.5319 10.4544 7.50154 15.6334 7.50154ZM18.6085 0.203054C18.868 0.238663 19.095 0.396919 19.2196 0.629033C19.3442 0.861148 19.3514 1.13925 19.239 1.3776L19.0141 1.85197L17.273 5.52791C17.1273 5.83115 16.8147 6.016 16.481 5.99616C16.2002 5.9804 15.9177 5.97252 15.6334 5.97252C15.3495 5.97252 15.0664 5.9804 14.7859 5.99616C14.4524 6.01612 14.14 5.83118 13.9948 5.52791L12.2528 1.85197L12.0279 1.3776C11.9155 1.13925 11.9227 0.861148 12.0473 0.629033C12.1719 0.396919 12.3989 0.238663 12.6584 0.203054C14.6327 -0.0676847 16.6342 -0.0676847 18.6085 0.203054Z" fill="#FFC905"/>
<path d="M121.145 14.9216C121.493 14.921 121.829 14.9365 122.152 14.968C123.822 15.1261 125.157 15.6927 126.16 16.6677C127.214 17.694 127.803 19.0856 127.927 20.8425C127.943 21.0782 127.952 21.3218 127.952 21.5733C127.953 21.6847 127.945 21.796 127.927 21.9059C127.92 22.0066 127.874 22.1007 127.8 22.1685C127.696 22.2402 127.413 22.2761 126.95 22.2761H117.164C117.083 22.4599 117.042 22.7969 117.042 23.287C117.042 25.2878 117.473 26.8702 118.334 28.0342C119.194 29.1983 120.365 29.7803 121.844 29.7803C122.721 29.7745 123.587 29.5759 124.381 29.1983C125.275 28.7748 126.1 28.2171 126.828 27.5441L127.678 28.6162C126.364 30.1152 124.819 31.08 123.042 31.5106C122.301 31.6881 121.542 31.7762 120.78 31.7733C119.995 31.7776 119.212 31.6895 118.447 31.5106C118.077 31.4234 117.715 31.3108 117.361 31.1736C115.381 30.4332 113.807 28.8799 113.03 26.9008C112.625 25.9007 112.423 24.788 112.423 23.5627C112.408 22.3728 112.625 21.1915 113.061 20.0854C113.469 19.0593 114.085 18.1302 114.869 17.3574C115.664 16.5814 116.604 15.9722 117.635 15.5649C118.439 15.2447 119.285 15.0436 120.146 14.968C120.463 14.9377 120.796 14.9222 121.145 14.9216ZM69.4375 14.926C69.7657 14.926 70.0888 14.9409 70.4075 14.9724C71.2563 15.0518 72.0904 15.2476 72.8867 15.5544C73.9354 15.9514 74.9036 16.5378 75.7437 17.2847C76.562 18.0143 77.2249 18.9037 77.6923 19.899C78.175 20.9399 78.4189 22.0769 78.4062 23.2257C78.4194 24.4079 78.1758 25.5786 77.6923 26.6557C77.2306 27.6771 76.5689 28.594 75.7472 29.3514C74.9116 30.1161 73.943 30.7185 72.8902 31.1281C72.4969 31.2839 72.0932 31.4117 71.6822 31.5106C70.2118 31.8584 68.6814 31.8584 67.2109 31.5106C66.8117 31.4153 66.4194 31.2925 66.0369 31.143C64.9923 30.7428 64.0331 30.1451 63.2112 29.3821C62.3967 28.6191 61.7464 27.6956 61.3007 26.6689C60.8291 25.583 60.5923 24.4084 60.606 23.2231C60.5931 22.0724 60.8303 20.9327 61.3007 19.8841C61.751 18.8829 62.4013 17.9861 63.2112 17.2497C64.038 16.5044 64.9966 15.9224 66.0369 15.5343C66.821 15.2384 67.6407 15.0495 68.4744 14.9724C68.7905 14.9418 69.1092 14.926 69.4375 14.926ZM46.6528 7.87695C49.5966 7.87637 51.8703 8.398 53.4739 9.44185C55.0776 10.4857 55.8794 11.9386 55.8794 13.8005C55.8793 14.1913 55.8502 14.5815 55.7925 14.968C55.6374 16.1126 55.159 17.1881 54.4144 18.0663C53.4395 19.2128 51.8865 19.9798 49.7555 20.3673L56.8198 28.5313C57.2931 29.0932 57.887 29.5392 58.5566 29.8354C59.1996 30.1263 59.896 30.2778 60.6008 30.28V31.5053H53.3836L45.8287 22.1755C45.3216 21.5616 44.8801 21.1474 44.5044 20.9327C44.1287 20.7179 43.7784 20.6106 43.4537 20.6106V26.6356C43.4415 27.258 43.4928 27.8801 43.6065 28.492C43.7072 28.9727 43.9098 29.3462 44.2144 29.6122C44.5183 29.8789 44.9597 30.058 45.5386 30.1496C46.1176 30.2412 46.8942 30.287 47.8685 30.287V31.5123H35.7754V30.287C36.3217 30.2983 36.8676 30.2522 37.4045 30.1496C37.8207 30.0557 38.1455 29.8806 38.3788 29.6245C38.6121 29.3683 38.7693 29.0101 38.8503 28.5497C38.9411 27.9662 38.9821 27.3759 38.9728 26.7853V12.6067C38.9819 12.0274 38.9529 11.4482 38.8859 10.8728C38.8246 10.4329 38.6926 10.0851 38.49 9.82958C38.2679 9.56048 37.9617 9.37533 37.6216 9.30444C37.1261 9.1947 36.6225 9.12707 36.1158 9.10227V7.87695H46.6528ZM85.2265 14.9706L85.5912 17.6348H85.7735C86.6263 16.6791 87.4831 15.997 88.344 15.5885C89.2048 15.1801 90.2026 14.9759 91.3373 14.9759C92.674 14.9759 93.7783 15.2093 94.6502 15.6761C95.5011 16.1265 96.1914 16.8332 96.6249 17.6978H96.7465C97.4652 16.8482 98.3566 16.1641 99.3603 15.6918C100.378 15.2112 101.489 14.9655 102.612 14.9724C103.828 14.9736 104.886 15.1264 105.788 15.431C106.69 15.7356 107.394 16.1732 107.9 16.7438C108.306 17.2135 108.605 17.8262 108.797 18.5818C108.989 19.3374 109.085 20.3891 109.085 21.737V26.4492C109.087 27.2859 109.113 27.9496 109.162 28.4403C109.211 28.931 109.327 29.3088 109.509 29.5737C109.696 29.8448 109.979 30.0329 110.299 30.0989C110.771 30.1961 111.249 30.2555 111.73 30.2765V31.5018H102.126V30.2765C102.612 30.2715 103.095 30.2151 103.569 30.1085C103.894 30.0356 104.184 29.8516 104.39 29.5877C104.583 29.3328 104.704 28.9803 104.755 28.5305C104.813 27.9196 104.838 27.3061 104.831 26.6925V22.6805C104.842 21.7784 104.782 20.8769 104.649 19.9848C104.527 19.2502 104.335 18.658 104.071 18.2081C103.832 17.7828 103.465 17.4455 103.022 17.2453C102.587 17.051 102.055 16.9539 101.427 16.9539C100.718 16.9574 100.136 17.1324 99.6799 17.479C99.21 17.8425 98.8215 18.3018 98.5397 18.8269C98.0128 19.7873 97.7494 20.982 97.7494 22.4109V26.4474C97.7494 27.2841 97.7697 27.9479 97.8102 28.4386C97.8507 28.9293 97.9622 29.3071 98.1446 29.572C98.3354 29.8458 98.6244 30.0341 98.9504 30.0971C99.4371 30.1966 99.9306 30.2581 100.427 30.2809V31.5062H90.7928V30.2809C91.2778 30.2569 91.7603 30.1955 92.2361 30.0971C92.5579 30.0352 92.8482 29.8618 93.0567 29.607C93.2495 29.3625 93.371 29.0104 93.4214 28.5506C93.479 27.9345 93.5046 27.3157 93.4978 26.6969V22.6849C93.5092 21.7828 93.4482 20.8813 93.3155 19.9892C93.1933 19.2546 92.9956 18.6623 92.7224 18.2125C92.472 17.7854 92.0947 17.4486 91.6438 17.2497C91.1986 17.0554 90.6414 16.9583 89.9722 16.9583C89.3029 16.9583 88.7509 17.1216 88.3162 17.4484C87.8612 17.7986 87.492 18.2492 87.2368 18.7656C86.9586 19.2965 86.754 19.8634 86.6289 20.4504C86.4861 21.0939 86.4147 21.7515 86.4161 22.4109L86.4163 26.5974C86.4185 27.3882 86.4387 28.0151 86.4769 28.478C86.5175 28.9681 86.6289 29.3409 86.8113 29.5965C87.0031 29.8582 87.2849 30.0382 87.6015 30.1015C88.0721 30.2007 88.5498 30.2621 89.03 30.2853V31.5106H79.4222V30.2853C79.9123 30.2604 80.3999 30.199 80.8811 30.1015C81.2429 30.0192 81.5164 29.8558 81.7017 29.6114C81.8869 29.3669 82.0085 29.0148 82.0664 28.555C82.1355 27.9396 82.1659 27.3205 82.1576 26.7012V22.9037C82.157 21.7396 82.1417 20.7696 82.1116 19.9935C82.0815 19.2175 82.0259 18.6865 81.9448 18.4006C81.9009 18.181 81.8238 17.9693 81.7164 17.7731C81.6143 17.6104 81.466 17.4824 81.2909 17.4055C81.0549 17.3025 80.8033 17.2403 80.5467 17.2217C80.2428 17.1908 79.8477 17.1753 79.3614 17.1753V16.1338L85.2265 14.9706ZM69.4409 16.7027C68.8502 16.6978 68.2704 16.8626 67.7693 17.1779C67.2425 17.5154 66.8005 17.9714 66.478 18.51C66.096 19.1486 65.8189 19.8453 65.6574 20.5729C65.457 21.452 65.3602 22.3518 65.3691 23.2537C65.3587 24.1806 65.4554 25.1055 65.6574 26.0098C65.8164 26.7446 66.0936 27.4483 66.478 28.0929C66.7977 28.629 67.2342 29.0848 67.7545 29.4258C68.2592 29.7455 68.845 29.9108 69.4409 29.9019C70.0459 29.9086 70.6407 29.7442 71.1577 29.4276C71.6969 29.0884 72.1498 28.6268 72.4803 28.0797C72.8727 27.4295 73.16 26.7204 73.3313 25.9792C73.5421 25.088 73.6442 24.1742 73.6353 23.2581C73.6447 22.3605 73.5426 21.4651 73.3313 20.5931C73.1563 19.8635 72.8692 19.166 72.4803 18.5258C72.1498 17.9787 71.6969 17.5171 71.1577 17.1779C70.6408 16.861 70.046 16.6964 69.4409 16.7027ZM121.103 16.698L121.025 16.6983C120.155 16.6989 119.38 17.0615 118.7 17.7862C118.02 18.5109 117.58 19.4349 117.378 20.5581H121.785C122.595 20.5575 123.116 20.5114 123.348 20.4198C123.58 20.3279 123.698 20.1091 123.695 19.7616C123.694 18.8636 123.441 18.1284 122.935 17.556C122.457 16.9977 121.757 16.6832 121.025 16.6983L121.103 16.698ZM46.6528 9.59239H44.0051C43.6398 9.59239 43.4571 9.76744 43.4571 10.1175V18.7726H45.437C47.3429 18.7726 48.7685 18.3977 49.7138 17.6479C50.4612 17.0569 50.9125 16.1624 51.0677 14.9645C51.1105 14.6281 51.1314 14.2893 51.1302 13.9501C51.1296 12.6402 50.7336 11.5864 49.9422 10.7888C49.1508 9.9912 48.0544 9.59239 46.6528 9.59239Z" fill="#27272A"/>
</svg>
