<svg width="43" height="42" viewBox="0 0 43 42" fill="none" xmlns="http://www.w3.org/2000/svg">
<path d="M35.7858 18.2488C36.5941 21.2654 36.4897 24.454 35.4859 27.4113C34.482 30.3686 32.6237 32.9618 30.1461 34.863C27.6684 36.7642 24.6826 37.8879 21.5662 38.0922C18.4499 38.2964 15.3429 37.572 12.6383 36.0105C9.93369 34.449 7.75284 32.1205 6.37155 29.3195C4.99027 26.5186 4.47059 23.3709 4.87823 20.2746C5.28587 17.1783 6.60252 14.2724 8.66168 11.9243C10.7208 9.5763 13.43 7.89162 16.4467 7.08332L20.5335 22.3356L35.7858 18.2488Z" fill="#F15060"/>
<path d="M18.1646 4.10725C20.1675 3.57056 22.2566 3.43363 24.3125 3.7043C26.3683 3.97496 28.3508 4.6479 30.1466 5.68471C31.9424 6.72152 33.5164 8.10189 34.7787 9.74701C36.0411 11.3921 36.967 13.2698 37.5037 15.2727L22.2514 19.3596L18.1646 4.10725Z" fill="#FF7482"/>
</svg>
