<svg width="150" height="151" viewBox="0 0 150 151" fill="none" xmlns="http://www.w3.org/2000/svg">
<path d="M124.45 26.2618L133.091 32.2944C135.779 34.1705 135.193 38.305 132.09 39.3609L122.309 42.6899C119.102 43.7812 116.075 40.6413 117.283 37.4766L118.31 34.7849C118.544 34.1735 118.624 33.5142 118.543 32.8648L118.191 30.0352C117.764 26.5979 121.61 24.2791 124.45 26.2618Z" fill="#FFBB24"/>
<path opacity="0.2" d="M115.787 33.5402C56.4053 28.5598 13.0948 71.4273 48.7376 100.59C61.3802 110.934 77.0876 109.784 86.6653 100.207C97.3923 89.4795 98.9248 71.8565 88.1977 61.1295C64.445 37.3768 6.59569 62.2788 48.3545 149.244" stroke="#F15060" stroke-width="2" stroke-linecap="round" stroke-dasharray="5.2 5.2"/>
</svg>
