<svg width="32" height="33" viewBox="0 0 32 33" fill="none" xmlns="http://www.w3.org/2000/svg">
<path d="M5.33301 28.5001C5.33301 27.7637 5.92996 27.1667 6.66634 27.1667H25.333C26.0694 27.1667 26.6663 27.7637 26.6663 28.5001C26.6663 29.2365 26.0694 29.8334 25.333 29.8334H6.66634C5.92996 29.8334 5.33301 29.2365 5.33301 28.5001Z" fill="#90ECF4"/>
<path d="M18.2787 4.33635C19.8408 2.77427 22.3734 2.77428 23.9355 4.33637L25.4976 5.89847C27.0597 7.46057 27.0597 9.99324 25.4976 11.5553L24.9433 12.1096L17.7243 4.89068L18.2787 4.33635Z" fill="#444BD3"/>
<path d="M7.72971 14.896C7.54672 15.1143 7.412 15.3697 7.33536 15.6454L5.39218 22.6358C5.08654 23.7353 6.09852 24.7473 7.19808 24.4417L14.1885 22.4985C14.4642 22.4218 14.7196 22.2871 14.9378 22.1041L7.72971 14.896Z" fill="#444BD3"/>
<path d="M24.9431 12.1096L17.7241 4.89062L7.84788 14.7667C7.80645 14.8082 7.76696 14.8513 7.72949 14.896L14.9376 22.1041C14.9823 22.0666 15.0254 22.0271 15.0668 21.9857L24.9431 12.1096Z" fill="#90ECF4"/>
</svg>
